# xmcd
#
# Track frame offsets: 
#        150
#        16464
#        34302
#        54336
#        69062
#        88713
#        104889
#        124956
#        167682
#        184296
#        203648
#        219524
#        242339
#        287493
#        319746
#
# Disc length: 4628 seconds
#
# Revision: 2
# Processed by: cddbd v1.5.2PL0 Copyright (c) Steve Scherf et al.
# Submitted via: ExactAudioCopy v1.0b3
#
DISCID=d312120f
DTITLE=Various Artist - Time Blues   Vol.13
DYEAR=2003
DGENRE=Blues
TTITLE0=Liz Melendez Band - Keep My Head On
TTITLE1=Sunset Travelers - Everybody Knows
TTITLE2=Wolf Mail - Country Side Blues
TTITLE3=Lisa Otey - Love Me
TTITLE4=Eric King and The Thin Line - Hindsight
TTITLE5=The Prowlers - Moonshine
TTITLE6=Weepin'Willie - Dirty Old Man
TTITLE7=Popa Chubby - Arlita
TTITLE8=Nick Curran and The Nitelifes - She's Gone
TTITLE9=Sonny Rhodes - Life's Rainbow
TTITLE10=Rory Gallagher - Wheels Within Wheels
TTITLE11=Blues On First - The Thrill Is Gone
TTITLE12=Jeannie and Jimmy Cheatham - Little Bitty Bluebird Blues 
TTITLE13=Tim Turner - Blues This Mornin'
TTITLE14=J.P. Stingray - Trying Ain't Enough
EXTD=
EXTT0=
EXTT1=
EXTT2=
EXTT3=
EXTT4=
EXTT5=
EXTT6=
EXTT7=
EXTT8=
EXTT9=
EXTT10=
EXTT11=
EXTT12=
EXTT13=
EXTT14=
PLAYORDER=
